<svg width="48" height="48" viewBox="0 0 48 48" fill="none" xmlns="http://www.w3.org/2000/svg">
<path fill-rule="evenodd" clip-rule="evenodd" d="M41 15C41 12.2386 38.7614 10 36 10H12C9.23858 10 7 12.2386 7 15V33C7 35.7614 9.23858 38 12 38L36 38C38.7614 38 41 35.7614 41 33V15ZM36 12C37.6569 12 39 13.3431 39 15L39 33C39 34.6569 37.6569 36 36 36L12 36C10.3431 36 9 34.6569 9 33L9 15C9 13.3431 10.3431 12 12 12L36 12ZM14.3814 28.8492L19.2275 22.0958C20.2727 20.6347 22.0665 20.6347 23.1117 22.0958L23.6187 22.8301C23.7564 23.0328 23.9157 23.2689 24.0965 23.5382L26.2912 26.8441L27.7339 24.7969C28.4805 23.7344 29.7618 23.7344 30.5083 24.7969L30.8705 25.331C30.9688 25.4784 31.0826 25.6501 31.2118 25.8459L33.7882 29.7974C34.3742 30.7529 33.6772 31.9815 32.5195 31.9999L25.4943 32L25.4745 31.9999L16.0921 32C14.4666 31.9984 13.4665 30.2875 14.3005 28.968L14.3814 28.8492ZM27.7034 28.9715L27.478 28.6318L29.1162 26.3074L29.2109 26.4471C29.3051 26.5884 29.4146 26.7536 29.5393 26.9427L31.5326 29.9999L28 30C28.0022 29.655 27.9095 29.3014 27.7034 28.9715ZM21.2457 23.0257C21.2918 23.0511 21.3776 23.1122 21.4775 23.249L21.9685 23.96C22.102 24.1567 22.2568 24.3861 22.4332 24.6487L25.9757 29.985C25.9708 29.9875 25.9644 29.9901 25.9562 29.9924C25.9461 29.9953 25.9295 29.9988 25.9048 29.9999L16.0941 30L16.0936 30C16.067 29.9999 16.0504 29.9965 16.0412 29.994C16.0348 29.9923 16.0297 29.9903 16.0256 29.9884L20.8524 23.2618L20.8541 23.2595C20.9572 23.1153 21.0462 23.0517 21.0934 23.0257C21.1393 23.0004 21.1634 23 21.1696 23C21.1757 23 21.1999 23.0004 21.2457 23.0257ZM28 16C29.6569 16 31 17.3431 31 19C31 20.6569 29.6569 22 28 22C26.3431 22 25 20.6569 25 19C25 17.3431 26.3431 16 28 16ZM28 18C27.4477 18 27 18.4477 27 19C27 19.5523 27.4477 20 28 20C28.5523 20 29 19.5523 29 19C29 18.4477 28.5523 18 28 18Z" fill="#DAECCF"/>
</svg>